<svg width="94" height="94" viewBox="0 0 94 94" xmlns="http://www.w3.org/2000/svg"><g fill-rule="nonzero" fill="none"><path d="M47 2.066c24.816 0 44.934 20.118 44.934 44.934S71.816 91.934 47 91.934 2.066 71.816 2.066 47 22.184 2.066 47 2.066Z" stroke="#000" stroke-width="3" fill="#BF4040"/><path d="M45.047 25.3c-14.531 0-25.86 9.16-25.86 20.548 0 10.742 10.41 17.597 26.543 17.265l.489-.02 1.777-.058-.45 1.172.06.117c.128.302.245.608.351.918l.04.117.058.196.078.273.058.176.079.195.058.215.078.313.098.332.059.214.097.352.098.371.078.371.098.39.078.274.097.43.098.43.137.586.058.312.098.469.098.488.117.508.137.723.117.586.156.82.078.41.137.645.117.664.156.898.176.938.156.976.176.996.176 1.016.176 1.054.175 1.094.137.84L52 85.34l.098.586.234 1.504.176 1.23.156.938.176 1.289.098.644c10.722-1.426 20.253-6.62 27.207-14.218l.214-.235-.996-3.71-2.636-9.864-1.641-6.133-1.445-5.39-.899-3.282-.566-2.07-.332-1.25-.313-1.094-.117-.469-.078-.253-.04-.137-.038-.117c-1.524-4.903-4.473-9.239-8.496-12.383-4.727-3.692-10.723-5.625-17.715-5.625Z" stroke="#000" stroke-width="3" fill="#FFF"/><path d="M48.172 33.523a3.125 3.125 0 1 1 0 6.25 3.125 3.125 0 0 1 0-6.25Z" fill="#000"/></g></svg>