<svg width="96" height="97" viewBox="0 0 96 97" xmlns="http://www.w3.org/2000/svg"><g fill="none" fill-rule="evenodd"><path d="M0 .5h96v96H0z"/><path d="M35.272 69.713C31.03 82.441 14.06 82.441 14.06 82.441s0-16.97 12.728-21.213l8.485 8.485ZM69.213 44.257v24.214a3 3 0 0 1-.878 2.12L56.206 82.72a3 3 0 0 1-5.063-1.533L48 65.471l21.213-21.214ZM52.243 27.287H28.029a3 3 0 0 0-2.12.878L13.78 40.294a3 3 0 0 0 1.533 5.063L31.029 48.5l21.214-21.213Z" fill="#BF4040" fill-rule="nonzero"/><path d="M35.272 69.713C31.03 82.441 14.06 82.441 14.06 82.441s0-16.97 12.728-21.213M73.456 40.015 48 65.47 31.03 48.5l25.455-25.456c9.64-9.639 19.278-9.545 23.39-8.932a2.986 2.986 0 0 1 2.513 2.514c.613 4.11.707 13.75-8.932 23.389Z" stroke="#000" stroke-width="3" fill="#FFF" stroke-linecap="round" stroke-linejoin="round"/><path d="M69.213 44.257v24.214a3 3 0 0 1-.878 2.12L56.206 82.72a3 3 0 0 1-5.063-1.533L48 65.471M52.243 27.287H28.029a3 3 0 0 0-2.12.878L13.78 40.294a3 3 0 0 0 1.533 5.063L31.029 48.5" stroke="#000" stroke-width="3" stroke-linecap="round" stroke-linejoin="round"/></g></svg>