<?xml version="1.0" encoding="UTF-8"?>
<svg width="180px" height="180px" viewBox="0 0 180 180" version="1.1" xmlns="http://www.w3.org/2000/svg" xmlns:xlink="http://www.w3.org/1999/xlink">
    <title>favicon</title>
    <g id="favicon" stroke="none" stroke-width="1" fill="none" fill-rule="evenodd">
        <path d="M76.0336455,25.2595625 C63.5169734,76.13733 127.531097,66.8375875 127.531097,141.297679 C148.47291,117.238107 131.573409,84.8211593 165.103699,54.258829 C165.103699,77.5227878 171.145035,89.2350723 180,102.629795 C180,102.629795 179.999974,102.632374 179.999921,102.637532 L179.999291,102.699429 C179.984003,104.200411 179.721557,129.967278 179.211954,180.000028 L179.211954,180.000028 L0,180.000028 L0,180.000028 L0,150.264913 C8.03671686,137.586011 16.7604106,125.807426 22.7539497,107.342011 C20.1440845,133.642626 22.7539497,148.265014 35.4403317,163.539881 C42.9191962,141.297679 70.5331079,122.680413 59.8561207,95.3241315 C49.1791335,67.9678505 50.1974942,57.330091 76.0336455,25.2595625 Z M46.170582,49.2991934 C39.3034728,56.3060557 40.7943216,76.7002735 48.6882162,94.6077158 C56.5821108,112.515158 46.170582,125.991735 35.012633,142.583143 C36.9606441,120.504925 34.9281594,115.263705 25.4496654,98.288789 C15.9711713,81.3138727 28.9559925,58.8417882 46.170582,49.2991934 Z M113.645121,25.3783038 C129.705228,39.332569 135.400833,40.7280773 137.14369,55.0956952 C138.886548,69.463313 131.100655,76.1352829 134.214487,94.8979683 C101.411353,67.9586479 127.152661,58.3615566 113.645121,25.3783038 Z M77.5830196,-5.68434189e-14 C89.1240967,13.6815196 95.9804708,10.1004768 103.508124,27.5862778 C106.951625,35.5851016 106.846454,40.7547989 106.335229,46.0227582 L106.261576,46.7587545 C106.236357,47.0044956 106.210577,47.2507438 106.18455,47.4977937 L106.106048,48.2416429 C105.516489,53.8429681 104.962469,59.9992626 108.045821,70.0656811 C70.1398002,37.4507914 93.6573244,34.8105226 77.5830196,-5.68434189e-14 Z" id="Combined-Shape-Copy" fill="#000000"></path>
    </g>
</svg>